<svg width="75" height="74" viewBox="0 0 75 74" fill="none" xmlns="http://www.w3.org/2000/svg">
<g clip-path="url(#clip0_90_101)">
<g filter="url(#filter0_bii_90_101)">
<rect x="0.0467529" width="74.096" height="74" rx="15" fill="white" fill-opacity="0.01"/>
</g>
<g filter="url(#filter1_f_90_101)">
<path d="M37.0891 23.5455C29.6638 23.5455 23.6227 29.5798 23.6227 36.9955C23.6227 44.418 29.6638 50.4546 37.0891 50.4546C44.5212 50.4546 50.5667 44.4168 50.5667 36.9955C50.5667 29.5798 44.5212 23.5455 37.0891 23.5455ZM30.2555 41.9378C31.7973 41.4661 33.4007 41.2251 35.0133 41.2225C37.7234 41.2225 40.3987 41.9087 42.7507 43.207C42.8911 43.2833 43.0179 43.5344 43.0763 43.8484C43.1324 44.1623 43.11 44.4841 43.0179 44.6512C42.9745 44.7306 42.9158 44.8007 42.8451 44.8573C42.7744 44.914 42.6931 44.956 42.606 44.981C42.519 45.0061 42.4278 45.0136 42.3377 45.0031C42.2477 44.9927 42.1607 44.9645 42.0816 44.9203C40.3541 43.9738 38.4538 43.3834 36.4934 43.1843C34.5331 42.9852 32.5527 43.1812 30.6697 43.7609C30.5833 43.7888 30.4921 43.7993 30.4016 43.7917C30.3111 43.7841 30.223 43.7586 30.1424 43.7166C30.0618 43.6747 29.9905 43.6171 29.9324 43.5474C29.8743 43.4776 29.8307 43.397 29.8041 43.3102C29.684 42.9178 29.9321 42.0432 30.2555 41.9378ZM29.6683 36.9821C31.4102 36.5095 33.2072 36.2701 35.0122 36.2701C38.2612 36.2701 41.4866 37.055 44.3415 38.5417C44.5425 38.6426 44.6896 38.8153 44.7569 39.026C44.791 39.1325 44.8034 39.2447 44.7933 39.356C44.7833 39.4673 44.7511 39.5754 44.6986 39.6741C44.4437 40.1719 44.1451 40.5072 43.9576 40.5072C43.8208 40.5066 43.6861 40.4735 43.5647 40.4107C40.9255 39.0347 37.9905 38.3212 35.0133 38.332C33.3573 38.3287 31.7085 38.5493 30.1118 38.9879C30.0052 39.017 29.894 39.0248 29.7845 39.011C29.6749 38.9972 29.5692 38.9619 29.4733 38.9072C29.3773 38.8526 29.2932 38.7796 29.2255 38.6924C29.1578 38.6053 29.108 38.5057 29.0789 38.3993C28.9532 37.9261 29.2417 37.0987 29.6683 36.9821ZM29.5167 33.7463C29.3904 33.7786 29.2588 33.7857 29.1297 33.7671C29.0006 33.7484 28.8765 33.7044 28.7645 33.6376C28.6525 33.5708 28.5548 33.4825 28.4772 33.3778C28.3996 33.2731 28.3435 33.154 28.3121 33.0276C28.174 32.4692 28.5232 31.8211 29.0306 31.6933C30.988 31.2118 32.9963 30.9675 35.0122 30.9657C38.8854 30.9657 42.5969 31.8357 46.0413 33.5523C46.2779 33.6698 46.4582 33.8764 46.5424 34.1266C46.6266 34.3768 46.6079 34.6501 46.4903 34.8865C46.3298 35.2094 45.9818 35.557 45.5978 35.557C45.4472 35.5565 45.2986 35.5232 45.1622 35.4595C42.0127 33.8815 38.5358 33.065 35.0122 33.0758C33.1766 33.0758 31.3276 33.3011 29.5167 33.7463Z" fill="url(#paint0_linear_90_101)"/>
</g>
<path d="M35.5899 48.755H23.8618C23.628 48.7502 23.3996 48.6842 23.1993 48.5637C22.999 48.4432 22.8337 48.2723 22.7199 48.0681C22.6061 47.8638 22.5478 47.6334 22.5508 47.3996C22.5537 47.1658 22.6178 46.9369 22.7368 46.7356L27.293 39.0237" stroke="white" stroke-width="2" stroke-linecap="round"/>
<path d="M41.5468 48.755H50.2093C50.443 48.7502 50.6714 48.6842 50.8717 48.5637C51.0721 48.4432 51.2373 48.2723 51.3511 48.0681C51.4649 47.8639 51.5232 47.6334 51.5202 47.3996C51.5173 47.1658 51.4532 46.9369 51.3343 46.7356L45.7093 37.2519" stroke="white" stroke-width="2" stroke-linecap="round"/>
<path d="M29.9592 34.4731L35.9217 24.4325C36.0411 24.2333 36.2101 24.0684 36.4122 23.9539C36.6143 23.8394 36.8426 23.7792 37.0749 23.7792C37.3071 23.7792 37.5354 23.8394 37.7375 23.9539C37.9396 24.0684 38.1086 24.2333 38.228 24.4325L42.728 32.0656" stroke="white" stroke-width="2" stroke-linecap="round"/>
<path d="M44.9217 45.875L41.6311 48.6875C41.6248 48.6938 41.6198 48.7012 41.6164 48.7094C41.613 48.7176 41.6113 48.7264 41.6113 48.7353C41.6113 48.7442 41.613 48.753 41.6164 48.7612C41.6198 48.7694 41.6248 48.7769 41.6311 48.7831L44.9217 52.22" stroke="white" stroke-width="2" stroke-linecap="round"/>
<path d="M28.3786 43.2931L27.2818 39.0912C27.2792 39.0827 27.275 39.0748 27.2693 39.068C27.2637 39.0611 27.2568 39.0554 27.2489 39.0512C27.2411 39.047 27.2325 39.0444 27.2236 39.0436C27.2148 39.0427 27.2059 39.0436 27.1974 39.0462L22.6974 40.4975" stroke="white" stroke-width="2" stroke-linecap="round"/>
<path d="M38.4362 30.9969L42.7112 32.0881L43.6337 27.3575" stroke="white" stroke-width="2" stroke-linecap="round"/>
</g>
<defs>
<filter id="filter0_bii_90_101" x="-29.9532" y="-30" width="134.096" height="134" filterUnits="userSpaceOnUse" color-interpolation-filters="sRGB">
<feFlood flood-opacity="0" result="BackgroundImageFix"/>
<feGaussianBlur in="BackgroundImageFix" stdDeviation="15"/>
<feComposite in2="SourceAlpha" operator="in" result="effect1_backgroundBlur_90_101"/>
<feBlend mode="normal" in="SourceGraphic" in2="effect1_backgroundBlur_90_101" result="shape"/>
<feColorMatrix in="SourceAlpha" type="matrix" values="0 0 0 0 0 0 0 0 0 0 0 0 0 0 0 0 0 0 127 0" result="hardAlpha"/>
<feOffset dx="10" dy="10"/>
<feGaussianBlur stdDeviation="2.5"/>
<feComposite in2="hardAlpha" operator="arithmetic" k2="-1" k3="1"/>
<feColorMatrix type="matrix" values="0 0 0 0 0 0 0 0 0 0.941176 0 0 0 0 1 0 0 0 0.2 0"/>
<feBlend mode="normal" in2="shape" result="effect2_innerShadow_90_101"/>
<feColorMatrix in="SourceAlpha" type="matrix" values="0 0 0 0 0 0 0 0 0 0 0 0 0 0 0 0 0 0 127 0" result="hardAlpha"/>
<feOffset dy="-5"/>
<feGaussianBlur stdDeviation="7.5"/>
<feComposite in2="hardAlpha" operator="arithmetic" k2="-1" k3="1"/>
<feColorMatrix type="matrix" values="0 0 0 0 0 0 0 0 0 0.941176 0 0 0 0 1 0 0 0 1 0"/>
<feBlend mode="normal" in2="effect2_innerShadow_90_101" result="effect3_innerShadow_90_101"/>
</filter>
<filter id="filter1_f_90_101" x="-26.3773" y="-26.4545" width="126.944" height="126.909" filterUnits="userSpaceOnUse" color-interpolation-filters="sRGB">
<feFlood flood-opacity="0" result="BackgroundImageFix"/>
<feBlend mode="normal" in="SourceGraphic" in2="BackgroundImageFix" result="shape"/>
<feGaussianBlur stdDeviation="25" result="effect1_foregroundBlur_90_101"/>
</filter>
<linearGradient id="paint0_linear_90_101" x1="48.5952" y1="21.8407" x2="21.4976" y2="42.4164" gradientUnits="userSpaceOnUse">
<stop stop-color="#7041EA"/>
<stop offset="0.859375" stop-color="#232323"/>
</linearGradient>
<clipPath id="clip0_90_101">
<rect width="74.096" height="74" fill="white" transform="translate(0.0467529)"/>
</clipPath>
</defs>
</svg>
