<svg width="75" height="74" viewBox="0 0 75 74" fill="none" xmlns="http://www.w3.org/2000/svg">
<g clip-path="url(#clip0_90_63)">
<g filter="url(#filter0_bii_90_63)">
<rect x="0.046814" width="74.096" height="74" rx="15" fill="white" fill-opacity="0.01"/>
</g>
<g filter="url(#filter1_f_90_63)">
<path d="M37.0892 23.5455C29.6639 23.5455 23.6228 29.5798 23.6228 36.9955C23.6228 44.418 29.6639 50.4546 37.0892 50.4546C44.5212 50.4546 50.5668 44.4168 50.5668 36.9955C50.5668 29.5798 44.5212 23.5455 37.0892 23.5455ZM30.2555 41.9378C31.7974 41.4661 33.4008 41.2251 35.0134 41.2225C37.7235 41.2225 40.3988 41.9087 42.7508 43.207C42.8911 43.2833 43.018 43.5344 43.0764 43.8484C43.1325 44.1623 43.11 44.4841 43.018 44.6512C42.9746 44.7306 42.9159 44.8007 42.8452 44.8573C42.7745 44.914 42.6932 44.956 42.6061 44.981C42.519 45.0061 42.4278 45.0136 42.3378 45.0031C42.2478 44.9927 42.1607 44.9645 42.0817 44.9203C40.3541 43.9738 38.4538 43.3834 36.4935 43.1843C34.5332 42.9852 32.5528 43.1812 30.6698 43.7609C30.5833 43.7888 30.4922 43.7993 30.4017 43.7917C30.3111 43.7841 30.223 43.7586 30.1425 43.7166C30.0619 43.6747 29.9905 43.6171 29.9324 43.5474C29.8744 43.4776 29.8308 43.397 29.8042 43.3102C29.6841 42.9178 29.9322 42.0432 30.2555 41.9378ZM29.6684 36.9821C31.4102 36.5095 33.2072 36.2701 35.0123 36.2701C38.2612 36.2701 41.4867 37.055 44.3416 38.5417C44.5426 38.6426 44.6896 38.8153 44.757 39.026C44.791 39.1325 44.8034 39.2447 44.7934 39.356C44.7834 39.4673 44.7511 39.5754 44.6986 39.6741C44.4438 40.1719 44.1451 40.5072 43.9577 40.5072C43.8209 40.5066 43.6862 40.4735 43.5647 40.4107C40.9256 39.0347 37.9905 38.3212 35.0134 38.332C33.3574 38.3287 31.7085 38.5493 30.1118 38.9879C30.0053 39.017 29.8941 39.0248 29.7845 39.011C29.675 38.9972 29.5692 38.9619 29.4733 38.9072C29.3774 38.8526 29.2932 38.7796 29.2256 38.6924C29.1579 38.6053 29.1081 38.5057 29.079 38.3993C28.9532 37.9261 29.2417 37.0987 29.6684 36.9821ZM29.5168 33.7463C29.3904 33.7786 29.2589 33.7857 29.1298 33.7671C29.0007 33.7484 28.8765 33.7044 28.7645 33.6376C28.6525 33.5708 28.5549 33.4825 28.4773 33.3778C28.3996 33.2731 28.3435 33.154 28.3122 33.0276C28.1741 32.4692 28.5232 31.8211 29.0307 31.6933C30.9881 31.2118 32.9964 30.9675 35.0123 30.9657C38.8854 30.9657 42.597 31.8357 46.0413 33.5523C46.278 33.6698 46.4582 33.8764 46.5424 34.1266C46.6266 34.3768 46.6079 34.6501 46.4904 34.8865C46.3298 35.2094 45.9818 35.557 45.5979 35.557C45.4473 35.5565 45.2987 35.5232 45.1623 35.4595C42.0127 33.8815 38.5359 33.065 35.0123 33.0758C33.1767 33.0758 31.3277 33.3011 29.5168 33.7463Z" fill="url(#paint0_linear_90_63)"/>
</g>
<path d="M38.2112 48.6481C38.2112 48.6481 49.3431 44.9638 44.7418 34.9625C44.7418 34.9625 42.0418 28.5163 33.8799 27.4981C25.7181 26.48 23.7156 31.7 23.7156 31.7C23.7156 31.7 20.0649 38.945 26.4156 39.6875C27.3268 39.7944 29.2281 39.3725 30.0156 40.4356C30.8031 41.4988 30.1787 42.7981 30.0156 45.3856C29.9256 46.8256 31.0112 50.3019 38.2112 48.6481Z" stroke="white" stroke-width="1.5" stroke-linecap="round"/>
<path d="M28.7218 35.525C29.8371 35.525 30.7412 34.6209 30.7412 33.5056C30.7412 32.3904 29.8371 31.4863 28.7218 31.4863C27.6066 31.4863 26.7025 32.3904 26.7025 33.5056C26.7025 34.6209 27.6066 35.525 28.7218 35.525Z" stroke="white" stroke-width="1.5" stroke-linecap="round"/>
<path d="M40.4331 37.1281C41.188 37.1281 41.7999 36.5161 41.7999 35.7612C41.7999 35.0063 41.188 34.3943 40.4331 34.3943C39.6782 34.3943 39.0662 35.0063 39.0662 35.7612C39.0662 36.5161 39.6782 37.1281 40.4331 37.1281Z" stroke="white" stroke-width="1.5" stroke-linecap="round"/>
<path d="M40.4331 43.3269C41.188 43.3269 41.7999 42.7149 41.7999 41.96C41.7999 41.2051 41.188 40.5931 40.4331 40.5931C39.6782 40.5931 39.0662 41.2051 39.0662 41.96C39.0662 42.7149 39.6782 43.3269 40.4331 43.3269Z" stroke="white" stroke-width="1.5" stroke-linecap="round"/>
<path d="M34.8756 46.3306C35.6305 46.3306 36.2424 45.7186 36.2424 44.9637C36.2424 44.2088 35.6305 43.5969 34.8756 43.5969C34.1207 43.5969 33.5087 44.2088 33.5087 44.9637C33.5087 45.7186 34.1207 46.3306 34.8756 46.3306Z" stroke="white" stroke-width="1.5" stroke-linecap="round"/>
<path d="M49.4218 27.0987C49.0337 28.9606 48.2574 33.23 48.1956 42.2862C48.1956 42.3474 48.2199 42.4061 48.2631 42.4493C48.3064 42.4926 48.365 42.5169 48.4262 42.5169H51.1881C51.2188 42.5169 51.2493 42.5107 51.2776 42.4988C51.306 42.4868 51.3317 42.4693 51.3532 42.4473C51.3746 42.4253 51.3915 42.3992 51.4028 42.3706C51.414 42.342 51.4194 42.3114 51.4187 42.2806C51.3624 40.6944 51.0024 32.0881 49.8718 27.0931C49.8597 27.0421 49.8306 26.9968 49.7893 26.9646C49.748 26.9324 49.6969 26.9152 49.6446 26.9159C49.5922 26.9165 49.5416 26.935 49.5011 26.9682C49.4606 27.0014 49.4326 27.0475 49.4218 27.0987Z" stroke="white" stroke-width="1.5" stroke-linecap="round"/>
<path d="M51.3793 44.6375C51.3793 45.4981 50.2993 48.7831 49.8156 48.7831C49.3318 48.7831 48.2518 45.4981 48.2518 44.6375C48.2518 44.2227 48.4166 43.825 48.7098 43.5317C49.0031 43.2385 49.4008 43.0737 49.8156 43.0737C50.2303 43.0737 50.628 43.2385 50.9213 43.5317C51.2145 43.825 51.3793 44.2227 51.3793 44.6375Z" stroke="white" stroke-width="1.5" stroke-linecap="round"/>
</g>
<defs>
<filter id="filter0_bii_90_63" x="-29.9532" y="-30" width="134.096" height="134" filterUnits="userSpaceOnUse" color-interpolation-filters="sRGB">
<feFlood flood-opacity="0" result="BackgroundImageFix"/>
<feGaussianBlur in="BackgroundImageFix" stdDeviation="15"/>
<feComposite in2="SourceAlpha" operator="in" result="effect1_backgroundBlur_90_63"/>
<feBlend mode="normal" in="SourceGraphic" in2="effect1_backgroundBlur_90_63" result="shape"/>
<feColorMatrix in="SourceAlpha" type="matrix" values="0 0 0 0 0 0 0 0 0 0 0 0 0 0 0 0 0 0 127 0" result="hardAlpha"/>
<feOffset dx="10" dy="10"/>
<feGaussianBlur stdDeviation="2.5"/>
<feComposite in2="hardAlpha" operator="arithmetic" k2="-1" k3="1"/>
<feColorMatrix type="matrix" values="0 0 0 0 1 0 0 0 0 0.108333 0 0 0 0 0.970278 0 0 0 0.2 0"/>
<feBlend mode="normal" in2="shape" result="effect2_innerShadow_90_63"/>
<feColorMatrix in="SourceAlpha" type="matrix" values="0 0 0 0 0 0 0 0 0 0 0 0 0 0 0 0 0 0 127 0" result="hardAlpha"/>
<feOffset dy="-5"/>
<feGaussianBlur stdDeviation="7.5"/>
<feComposite in2="hardAlpha" operator="arithmetic" k2="-1" k3="1"/>
<feColorMatrix type="matrix" values="0 0 0 0 1 0 0 0 0 0.108333 0 0 0 0 0.970278 0 0 0 1 0"/>
<feBlend mode="normal" in2="effect2_innerShadow_90_63" result="effect3_innerShadow_90_63"/>
</filter>
<filter id="filter1_f_90_63" x="-26.3772" y="-26.4545" width="126.944" height="126.909" filterUnits="userSpaceOnUse" color-interpolation-filters="sRGB">
<feFlood flood-opacity="0" result="BackgroundImageFix"/>
<feBlend mode="normal" in="SourceGraphic" in2="BackgroundImageFix" result="shape"/>
<feGaussianBlur stdDeviation="25" result="effect1_foregroundBlur_90_63"/>
</filter>
<linearGradient id="paint0_linear_90_63" x1="48.5953" y1="21.8407" x2="21.4977" y2="42.4164" gradientUnits="userSpaceOnUse">
<stop stop-color="#7041EA"/>
<stop offset="0.859375" stop-color="#232323"/>
</linearGradient>
<clipPath id="clip0_90_63">
<rect width="74.096" height="74" fill="white" transform="translate(0.046814)"/>
</clipPath>
</defs>
</svg>
