<svg width="471" height="629" viewBox="0 0 471 629" fill="none" xmlns="http://www.w3.org/2000/svg">
<path opacity="0.3" d="M-158 167.683C-158 161.003 -155.346 154.596 -150.623 149.873L-8.12724 7.37724C-3.40367 2.65367 3.00287 0 9.683 0H156.5H303.317C309.997 0 316.404 2.65368 321.127 7.37725L463.623 149.873C468.346 154.596 471 161.003 471 167.683V314.5V461.317C471 467.997 468.346 474.404 463.623 479.127L321.127 621.623C316.404 626.346 309.997 629 303.317 629H156.5H9.683C3.00285 629 -3.40367 626.346 -8.12724 621.623L-150.623 479.127C-155.346 474.404 -158 467.997 -158 461.317V314.5V167.683Z" fill="#232323"/>
<path opacity="0.05" d="M29.4504 352V270.548H49.8134V336.317H88.2628V352H29.4504ZM132.983 353.265C119.745 353.265 109.669 349.892 102.754 343.147C95.8402 336.401 92.3832 325.903 92.3832 311.653C92.3832 296.56 95.8402 285.725 102.754 279.149C109.669 272.572 119.745 269.283 132.983 269.283C146.221 269.283 156.297 272.572 163.211 279.149C170.125 285.725 173.582 296.56 173.582 311.653C173.582 325.903 170.125 336.401 163.211 343.147C156.297 349.892 146.221 353.265 132.983 353.265ZM132.983 335.937C139.812 335.937 144.787 333.998 147.907 330.119C151.111 326.156 152.713 320.001 152.713 311.653C152.713 302.547 151.111 296.139 147.907 292.429C144.787 288.634 139.812 286.737 132.983 286.737C126.069 286.737 121.009 288.634 117.805 292.429C114.685 296.139 113.126 302.547 113.126 311.653C113.126 320.001 114.685 326.156 117.805 330.119C121.009 333.998 126.069 335.937 132.983 335.937ZM224.566 353.265C210.484 353.265 199.776 349.723 192.44 342.641C185.105 335.474 181.437 325.397 181.437 312.412C181.437 298.837 185.189 288.255 192.693 280.666C200.198 273.078 211.243 269.283 225.831 269.283C230.805 269.283 235.274 269.578 239.237 270.169C243.285 270.759 247.121 271.644 250.747 272.825V290.279C247.121 288.93 243.327 288.002 239.364 287.496C235.485 286.99 231.48 286.737 227.348 286.737C218.579 286.737 212.171 288.845 208.124 293.061C204.161 297.193 202.179 303.643 202.179 312.412C202.179 320.423 204.076 326.367 207.871 330.246C211.665 334.04 217.272 335.937 224.692 335.937C229.583 335.937 234.136 335.263 238.352 333.914V318.483H220.771V305.709H255.426V346.056C252.56 347.911 248.554 349.597 243.411 351.115C238.352 352.548 232.07 353.265 224.566 353.265ZM303.926 353.265C290.688 353.265 280.612 349.892 273.698 343.147C266.783 336.401 263.326 325.903 263.326 311.653C263.326 296.56 266.783 285.725 273.698 279.149C280.612 272.572 290.688 269.283 303.926 269.283C317.164 269.283 327.24 272.572 334.154 279.149C341.068 285.725 344.525 296.56 344.525 311.653C344.525 325.903 341.068 336.401 334.154 343.147C327.24 349.892 317.164 353.265 303.926 353.265ZM303.926 335.937C310.756 335.937 315.731 333.998 318.85 330.119C322.054 326.156 323.656 320.001 323.656 311.653C323.656 302.547 322.054 296.139 318.85 292.429C315.731 288.634 310.756 286.737 303.926 286.737C297.012 286.737 291.953 288.634 288.748 292.429C285.629 296.139 284.069 302.547 284.069 311.653C284.069 320.001 285.629 326.156 288.748 330.119C291.953 333.998 297.012 335.937 303.926 335.937Z" fill="white"/>
</svg>
